<svg xmlns="http://www.w3.org/2000/svg" viewBox="0 0 512 512">
  <defs>
    <linearGradient id="g" x1="0" y1="0" x2="0.3" y2="1">
      <stop offset="0%" stop-color="#7cc9ee"/>
      <stop offset="55%" stop-color="#9bd8ef"/>
      <stop offset="100%" stop-color="#bfe7dd"/>
    </linearGradient>
  </defs>
  <rect width="512" height="512" rx="112" fill="#ddf2ec"/>
  <path d="M236 92c50-13 108 3 140 39 33 38 30 79 48 115 18 35 56 61 56 105 0 47-45 73-85 93-41 21-76 38-120 38-45 0-84-13-125-32-41-20-83-45-89-90-6-47 29-80 44-122 16-44 10-96 45-124 25-20 57-16 86-22z" transform="translate(-16 -8) scale(0.78) translate(60 40)" fill="url(#g)"/>
  <ellipse cx="212" cy="268" rx="21" ry="24" fill="#101418"/>
  <ellipse cx="304" cy="268" rx="21" ry="24" fill="#101418"/>
  <path d="M196 336c16 23 41 36 68 36s52-13 68-36" stroke="#101418" stroke-width="13" stroke-linecap="round" fill="none"/>
</svg>
